<svg xmlns="http://www.w3.org/2000/svg" version="1.1" xmlns:xlink="http://www.w3.org/1999/xlink" xmlns:svgjs="http://svgjs.dev/svgjs" width="1000" height="623" viewBox="0 0 1000 623"><g transform="matrix(1,0,0,1,-0.6060606060606233,0.2522267206477409)"><svg viewBox="0 0 396 247" data-background-color="#111111" preserveAspectRatio="xMidYMid meet" height="623" width="1000" xmlns="http://www.w3.org/2000/svg" xmlns:xlink="http://www.w3.org/1999/xlink"><defs></defs><g id="tight-bounds" transform="matrix(1,0,0,1,0.2400000000000091,-0.09999999999999432)"><svg viewBox="0 0 395.52 247.2" height="247.2" width="395.52"><g><svg></svg></g><g><svg viewBox="0 0 395.52 247.2" height="247.2" width="395.52"><g transform="matrix(1,0,0,1,75.54432,83.57571012500037)"><svg viewBox="0 0 244.43135999999998 80.04857974999923" height="80.04857974999923" width="244.43135999999998"><g><svg viewBox="0 0 384.4993264736865 125.91929693084343" height="80.04857974999923" width="244.43135999999998"><g transform="matrix(1,0,0,1,0,17.402739300861867)"><svg viewBox="0 0 244.43135999999998 91.1138183291197" height="91.1138183291197" width="244.43135999999998"><g><svg viewBox="0 0 244.43135999999998 91.1138183291197" height="91.1138183291197" width="244.43135999999998"><g><svg viewBox="0 0 244.43135999999998 59.932689230769235" height="59.932689230769235" width="244.43135999999998"><g transform="matrix(1,0,0,1,0,0)"><svg width="244.43135999999998" viewBox="4.199999809265137 -35.099998474121094 145.58999633789062 35.69999694824219" height="59.932689230769235" data-palette-color="#111111"><path d="M16.3-34.95L16.3-34.95Q20.55-34.95 23.05-34 25.55-33.05 26.63-30.7 27.7-28.35 27.7-24.05L27.7-24.05Q27.7-19.8 26.65-17.43 25.6-15.05 23.23-14.13 20.85-13.2 16.9-13.2L16.9-13.2Q14.75-13.2 12.78-13.3 10.8-13.4 9.15-13.6 7.5-13.8 6.33-14.03 5.15-14.25 4.7-14.45L4.7-14.45 4.85-17.35Q7.55-17.35 10.45-17.35 13.35-17.35 16.25-17.35L16.25-17.35Q18.65-17.4 20.05-17.95 21.45-18.5 22.05-19.95 22.65-21.4 22.65-24.05L22.65-24.05Q22.65-26.75 22.05-28.2 21.45-29.65 20.05-30.23 18.65-30.8 16.25-30.8L16.25-30.8Q12.05-30.8 9-30.75 5.95-30.7 4.9-30.6L4.9-30.6 4.2-34.5Q6.1-34.7 7.8-34.8 9.5-34.9 11.5-34.93 13.5-34.95 16.3-34.95ZM4.2-34.5L9.2-34.5 9.2 0 4.2 0 4.2-34.5ZM41.15-34.5L46.25-34.5Q46.9-34.5 47.4-34.13 47.9-33.75 48.1-33.15L48.1-33.15 59 0 53.8 0 45.2-27.75Q45-28.5 44.8-29.25 44.6-30 44.4-30.65L44.4-30.65 43-30.65Q42.8-30 42.6-29.25 42.4-28.5 42.15-27.75L42.15-27.75 33.55 0 28.4 0 39.3-33.15Q39.5-33.75 40-34.13 40.5-34.5 41.15-34.5L41.15-34.5ZM34.85-14.65L52.45-14.65 52.45-10.5 34.85-10.5 34.85-14.65ZM76.09-34.95L76.09-34.95Q79.9-34.95 82.52-34.05 85.15-33.15 86.75-31.13 88.34-29.1 89.07-25.68 89.8-22.25 89.8-17.25L89.8-17.25Q89.8-12.25 89.07-8.83 88.34-5.4 86.75-3.38 85.15-1.35 82.52-0.45 79.9 0.45 76.09 0.45L76.09 0.45Q72.5 0.45 69.42 0.33 66.34 0.2 63.6 0L63.6 0 65.7-4Q67.8-3.9 70.37-3.83 72.95-3.75 76.09-3.75L76.09-3.75Q79.3-3.75 81.15-5 83-6.25 83.77-9.18 84.55-12.1 84.55-17.25L84.55-17.25Q84.55-22.4 83.77-25.33 83-28.25 81.15-29.53 79.3-30.8 76.09-30.8L76.09-30.8Q73-30.8 70.55-30.75 68.09-30.7 65.75-30.65L65.75-30.65 63.6-34.5Q66.34-34.7 69.42-34.83 72.5-34.95 76.09-34.95ZM63.6-34.5L68.59-34.5 68.59 0 63.6 0 63.6-34.5ZM109.49-35.1L109.49-35.1Q110.59-35.1 112.57-35 114.54-34.9 116.69-34.3L116.69-34.3 116.29-30.8Q115.14-30.9 114.19-30.95 113.24-31 112.14-31 111.04-31 109.49-31L109.49-31Q107.04-31 105.34-30.45 103.64-29.9 102.64-28.4 101.64-26.9 101.22-23.98 100.79-21.05 100.79-16.25L100.79-16.25Q100.79-12.55 100.99-10.08 101.19-7.6 101.89-6.18 102.59-4.75 103.99-4.13 105.39-3.5 107.79-3.5L107.79-3.5Q110.64-3.5 111.99-4.38 113.34-5.25 113.74-7 114.14-8.75 114.14-11.25L114.14-11.25Q114.14-13.95 113.64-15.58 113.14-17.2 111.82-17.93 110.49-18.65 108.04-18.65L108.04-18.65Q106.44-18.65 105.07-18.25 103.69-17.85 102.27-16.88 100.84-15.9 98.94-14.1L98.94-14.1 98.74-16.45Q100.39-18.8 101.89-20.13 103.39-21.45 105.17-22 106.94-22.55 109.39-22.55L109.39-22.55Q113.04-22.55 115.12-21.45 117.19-20.35 118.04-17.88 118.89-15.4 118.89-11.25L118.89-11.25Q118.89-8.55 118.49-6.35 118.09-4.15 116.89-2.6 115.69-1.05 113.52-0.23 111.34 0.6 107.74 0.6L107.74 0.6Q104.09 0.6 101.74-0.23 99.39-1.05 98.14-3 96.89-4.95 96.39-8.22 95.89-11.5 95.89-16.45L95.89-16.45Q95.89-22.55 96.74-26.23 97.59-29.9 99.27-31.83 100.94-33.75 103.49-34.43 106.04-35.1 109.49-35.1ZM144.54-34.5L149.79-34.5 138.14-11.55 133.59-11.55 121.89-34.5 127.19-34.5 134.19-20.3Q134.64-19.35 134.99-18.32 135.34-17.3 135.69-16.3L135.69-16.3 136.04-16.3Q136.39-17.3 136.77-18.32 137.14-19.35 137.54-20.25L137.54-20.25 144.54-34.5ZM133.34-14.95L138.34-14.95 138.34 0 133.34 0 133.34-14.95Z" opacity="1" transform="matrix(1,0,0,1,0,0)" fill="#111111" class="undefined-text-0" data-fill-palette-color="primary" id="text-0"></path></svg></g></svg></g><g transform="matrix(1,0,0,1,100.925708544,74.08135877361231)"><svg viewBox="0 0 143.50565145599998 17.03245955550738" height="17.03245955550738" width="143.50565145599998"><g transform="matrix(1,0,0,1,0,0)"><svg width="143.50565145599998" viewBox="1.5 -28.799999237060547 324.7799987792969 38.54999923706055" height="17.03245955550738" data-palette-color="#8bc53f"><path d="M7.25 0L1.5-20.3 7.25-22.05 11.3-7.5 17.2-13.25 17.2-5.3 11.9 0 7.25 0ZM35.2-20.3L29.95 0 24.8 0 19.45-5.3 19.45-13.25 25.2-7.5 28.75-22.05 35.2-20.3ZM70-18.55L70-12.85 64.1-9.4 56.1-9.4 56.1-13.25 63.65-13.25 63.65-17.35 56.1-17.35 56.1-22.05 64.1-22.05 70-18.55ZM63.45-6.95L70-6.95 70-3.45 64.1 0 56.1 0 56.1-5.3 63.45-5.3 63.45-6.95ZM39.8-18.55L39.8-3.45 45.7 0 53.65 0 53.65-5.3 46.1-5.3 46.1-9.4 53.65-9.4 53.65-13.25 46.1-13.25 46.1-17.35 53.65-17.35 53.65-22.05 45.7-22.05 39.8-18.55ZM74.9 0L74.9-28.8 81.2-28.8 81.2-21.9 88.7-21.9 88.7-17.25 81.2-17.25 81.2-5.25 88.5-5.25 88.5 0 74.9 0ZM104.7-3.45L104.7-18.45 99-21.9 90.9-21.9 90.9-17.25 98.6-17.25 98.6-5.25 91.1-5.25 91.1 0 99 0 104.7-3.45ZM157.49-28.8L157.49 0 143.89 0 143.89-5.25 151.19-5.25 151.19-17.25 143.69-17.25 143.69-21.9 151.19-21.9 151.19-28.8 157.49-28.8ZM127.69-3.45L127.69-18.45 133.39-21.9 141.49-21.9 141.49-17.25 133.79-17.25 133.79-5.25 141.29-5.25 141.29 0 133.39 0 127.69-3.45ZM196.69-18.55L196.69-12.85 190.79-9.4 182.79-9.4 182.79-13.25 190.34-13.25 190.34-17.35 182.79-17.35 182.79-22.05 190.79-22.05 196.69-18.55ZM190.14-6.95L196.69-6.95 196.69-3.45 190.79 0 182.79 0 182.79-5.3 190.14-5.3 190.14-6.95ZM166.49-18.55L166.49-3.45 172.39 0 180.34 0 180.34-5.3 172.79-5.3 172.79-9.4 180.34-9.4 180.34-13.25 172.79-13.25 172.79-17.35 180.34-17.35 180.34-22.05 172.39-22.05 166.49-18.55ZM234.49-9.7L234.49-3.45 228.79 0 220.74 0 220.74-5.25 228.44-5.25 228.44-9.3 220.89-9.3 220.89-13.2 228.79-13.2 234.49-9.7ZM204.69-12.75L204.69-18.4 210.39-21.85 218.49-21.85 218.49-17.2 210.99-17.2 210.99-13.2 218.49-13.2 218.49-9.3 210.39-9.3 204.69-12.75ZM204.69-6.95L210.99-6.95 210.99-5.25 218.49-5.25 218.49 0 210.39 0 204.69-3.45 204.69-6.95ZM234.49-15.05L228.24-15.05 228.24-17.2 220.74-17.2 220.74-21.85 228.79-21.85 234.49-18.4 234.49-15.05ZM242.48-22L248.78-22 248.78 0.05 242.48 0.05 242.48-22ZM248.68-28.7L248.68-24.05 242.48-24.05 242.48-28.7 248.68-28.7ZM263.23 2.25L256.78 2.25 256.78 6.3 262.63 9.75 270.53 9.75 270.53 4.5 263.23 4.5 263.23 2.25ZM256.78-6.3L256.78-18.55 262.63-22 270.53-22 270.53-17.2 263.13-17.2 263.13-6.85 270.53-6.85 270.53-2.8 262.63-2.8 256.78-6.3ZM286.83 6.3L286.83-22 273.03-22 273.03-17.2 280.48-17.2 280.48-6.85 273.03-6.85 273.03-2.8 280.48-2.8 280.48 4.5 273.03 4.5 273.03 9.75 280.98 9.75 286.83 6.3ZM296.33-0.05L296.33-22 302.68-22 302.68-19.85 310.08-22 310.08-17.3 302.68-17.3 302.68-0.05 296.33-0.05ZM326.28-0.05L326.28-18.55 320.38-22 312.48-22 312.48-17.3 320.03-17.3 320.03-0.05 326.28-0.05Z" opacity="1" transform="matrix(1,0,0,1,0,0)" fill="#8bc53f" class="undefined-text-1" data-fill-palette-color="secondary" id="text-1"></path></svg></g></svg></g></svg></g></svg></g><g transform="matrix(1,0,0,1,258.5800295428431,0)"><svg viewBox="0 0 125.91929693084343 125.91929693084343" height="125.91929693084343" width="125.91929693084343"><g data-palette-color="#5d9943"><rect width="34.417941161097204" height="125.91929693084343" fill="#5d9943" stroke="transparent" data-fill-palette-color="accent" x="0" fill-opacity="1"></rect><rect width="34.417941161097204" height="125.91929693084343" fill="#5d9943" stroke="transparent" data-fill-palette-color="accent" x="41.97309897694781" fill-opacity="0.75"></rect><rect width="34.417941161097204" height="125.91929693084343" fill="#5d9943" stroke="transparent" data-fill-palette-color="accent" x="83.94619795389562" fill-opacity="0.5"></rect></g></svg></g></svg></g></svg></g><path d="M178.043 77.576L178.043 14.903 395.437 14.903 395.437 232.297 178.043 232.297 178.043 169.624 181.479 169.624 181.479 228.861 392.001 228.861 392.001 18.339 181.479 18.339 181.479 77.576Z" fill="#111111" stroke="transparent" data-fill-palette-color="primary"></path></svg></g></svg><rect width="395.52" height="247.2" fill="none" stroke="none" visibility="hidden"></rect></g></svg></g></svg>