<svg width="1000" height="623" viewBox="0 0 1000 623" fill="none" xmlns="http://www.w3.org/2000/svg">
<g clip-path="url(#clip0_1_2)">
<g clip-path="url(#clip1_1_2)">
<g clip-path="url(#clip2_1_2)">
<g clip-path="url(#clip3_1_2)">
<g clip-path="url(#clip4_1_2)">
<g clip-path="url(#clip5_1_2)">
<g clip-path="url(#clip6_1_2)">
<g clip-path="url(#clip7_1_2)">
<g clip-path="url(#clip8_1_2)">
<path d="M223.718 239.108C231.345 239.108 237.401 239.961 241.888 241.666C246.374 243.37 249.587 246.331 251.525 250.549C253.445 254.766 254.405 260.733 254.405 268.449C254.405 276.076 253.463 282.016 251.578 286.269C249.694 290.54 246.625 293.501 242.372 295.152C238.101 296.821 232.422 297.656 225.333 297.656C221.475 297.656 217.778 297.566 214.243 297.386C210.69 297.207 207.432 296.938 204.471 296.579C201.51 296.22 198.98 295.834 196.88 295.421C194.763 295.027 193.3 294.65 192.493 294.291L192.897 286.485C197.742 286.485 202.767 286.485 207.971 286.485C213.175 286.485 218.379 286.485 223.583 286.485C227.89 286.395 231.3 285.856 233.812 284.869C236.325 283.882 238.119 282.088 239.196 279.486C240.273 276.884 240.811 273.205 240.811 268.449C240.811 263.604 240.273 259.88 239.196 257.278C238.119 254.676 236.325 252.855 233.812 251.814C231.3 250.791 227.89 250.279 223.583 250.279C216.046 250.279 209.541 250.324 204.068 250.414C198.594 250.504 194.915 250.638 193.031 250.818L191.147 240.32C194.556 239.961 197.787 239.692 200.837 239.512C203.888 239.333 207.208 239.216 210.797 239.162C214.386 239.126 218.693 239.108 223.718 239.108ZM191.147 240.32H204.606V333.188H191.147V240.32ZM290.61 240.32H304.338C305.505 240.32 306.537 240.652 307.434 241.316C308.331 241.997 308.959 242.877 309.318 243.954L338.659 333.188H324.662L301.512 258.489C301.153 257.144 300.794 255.798 300.435 254.452C300.076 253.106 299.717 251.85 299.358 250.683H295.59C295.231 251.85 294.872 253.106 294.513 254.452C294.154 255.798 293.75 257.144 293.302 258.489L270.152 333.188H256.289L285.63 243.954C285.989 242.877 286.617 241.997 287.514 241.316C288.412 240.652 289.444 240.32 290.61 240.32ZM273.651 293.752H321.028V304.924H273.651V293.752ZM384.663 239.108C391.5 239.108 397.269 239.916 401.971 241.531C406.691 243.146 410.486 245.766 413.358 249.391C416.211 253.034 418.293 257.924 419.603 264.062C420.913 270.217 421.568 277.781 421.568 286.754C421.568 295.726 420.913 303.282 419.603 309.419C418.293 315.574 416.211 320.464 413.358 324.089C410.486 327.732 406.691 330.361 401.971 331.976C397.269 333.592 391.5 334.399 384.663 334.399C378.22 334.399 372.235 334.291 366.708 334.076C361.181 333.843 355.959 333.547 351.042 333.188L356.694 322.42C360.463 322.6 364.653 322.752 369.265 322.878C373.895 323.022 379.028 323.093 384.663 323.093C390.423 323.093 394.963 321.972 398.283 319.729C401.603 317.485 403.954 313.735 405.336 308.477C406.736 303.237 407.436 295.996 407.436 286.754C407.436 277.512 406.736 270.262 405.336 265.004C403.954 259.764 401.603 255.995 398.283 253.698C394.963 251.419 390.423 250.279 384.663 250.279C379.117 250.279 374.147 250.324 369.75 250.414C365.335 250.504 361.028 250.593 356.829 250.683L351.042 240.32C355.959 239.961 361.181 239.665 366.708 239.431C372.235 239.216 378.22 239.108 384.663 239.108ZM351.042 240.32H364.474V333.188H351.042V240.32ZM474.57 238.704C476.544 238.704 479.307 238.794 482.861 238.974C486.396 239.153 490.093 239.781 493.951 240.858L492.874 250.279C490.811 250.1 488.926 249.965 487.221 249.876C485.517 249.786 483.677 249.741 481.703 249.741C479.729 249.741 477.351 249.741 474.57 249.741C470.173 249.741 466.449 250.235 463.399 251.222C460.348 252.209 457.925 254.048 456.131 256.74C454.336 259.432 453.062 263.398 452.308 268.638C451.537 273.896 451.151 280.832 451.151 289.446C451.151 296.085 451.33 301.622 451.689 306.054C452.048 310.505 452.856 314.004 454.112 316.552C455.368 319.118 457.252 320.958 459.765 322.071C462.277 323.201 465.687 323.766 469.994 323.766C475.108 323.766 478.877 322.977 481.299 321.398C483.722 319.836 485.292 317.485 486.01 314.345C486.728 311.205 487.087 307.391 487.087 302.905C487.087 298.059 486.638 294.174 485.741 291.249C484.844 288.342 483.211 286.233 480.842 284.923C478.455 283.631 475.063 282.985 470.667 282.985C467.795 282.985 465.13 283.344 462.672 284.062C460.195 284.78 457.683 286.009 455.135 287.75C452.569 289.508 449.581 292.003 446.171 295.233L445.633 288.907C448.594 284.69 451.42 281.388 454.112 279.001C456.804 276.632 459.747 274.955 462.941 273.967C466.117 272.98 469.904 272.487 474.301 272.487C480.851 272.487 485.992 273.474 489.725 275.448C493.44 277.422 496.06 280.625 497.585 285.058C499.11 289.508 499.873 295.457 499.873 302.905C499.873 307.75 499.514 312.147 498.796 316.095C498.079 320.043 496.643 323.407 494.489 326.189C492.336 328.971 489.312 331.097 485.418 332.569C481.506 334.058 476.32 334.803 469.859 334.803C463.309 334.803 457.925 334.058 453.708 332.569C449.491 331.097 446.261 328.612 444.018 325.112C441.774 321.613 440.204 316.929 439.307 311.061C438.41 305.175 437.961 297.79 437.961 288.907C437.961 277.96 438.724 269.185 440.249 262.581C441.774 255.995 444.044 250.97 447.059 247.507C450.056 244.061 453.843 241.728 458.419 240.508C462.995 239.306 468.379 238.704 474.57 238.704ZM568.919 240.32H583.051L551.691 302.097H539.443L507.949 240.32H522.215L541.058 278.544C541.866 280.248 542.583 282.025 543.212 283.873C543.84 285.704 544.468 287.516 545.096 289.311H546.038C546.666 287.516 547.321 285.704 548.003 283.873C548.667 282.025 549.358 280.293 550.076 278.678L568.919 240.32ZM538.77 292.945H552.229V333.188H538.77V292.945Z" fill="white"/>
</g>
</g>
<g clip-path="url(#clip9_1_2)">
<g clip-path="url(#clip10_1_2)">
<path d="M357.042 377.893L352.969 363.511L357.042 362.271L359.911 372.579L364.091 368.506V374.138L360.336 377.893H357.042ZM376.843 363.511L373.124 377.893H369.475L365.685 374.138V368.506L369.759 372.579L372.274 362.271L376.843 363.511ZM401.497 364.751V368.789L397.317 371.233H391.65V368.506H396.998V365.601H391.65V362.271H397.317L401.497 364.751ZM396.857 372.969H401.497V375.448L397.317 377.893H391.65V374.138H396.857V372.969ZM380.102 364.751V375.448L384.282 377.893H389.914V374.138H384.565V371.233H389.914V368.506H384.565V365.601H389.914V362.271H384.282L380.102 364.751ZM404.968 377.893V357.489H409.432V362.378H414.745V365.672H409.432V374.173H414.603V377.893H404.968ZM426.08 375.448V364.822L422.042 362.378H416.304V365.672H421.759V374.173H416.445V377.893H422.042L426.08 375.448ZM463.479 357.489V377.893H453.844V374.173H459.016V365.672H453.702V362.378H459.016V357.489H463.479ZM442.367 375.448V364.822L446.405 362.378H452.144V365.672H446.689V374.173H452.002V377.893H446.405L442.367 375.448ZM491.25 364.751V368.789L487.07 371.233H481.402V368.506H486.751V365.601H481.402V362.271H487.07L491.25 364.751ZM486.61 372.969H491.25V375.448L487.07 377.893H481.402V374.138H486.61V372.969ZM469.855 364.751V375.448L474.035 377.893H479.667V374.138H474.318V371.233H479.667V368.506H474.318V365.601H479.667V362.271H474.035L469.855 364.751ZM518.029 371.021V375.448L513.991 377.893H508.288V374.173H513.743V371.304H508.394V368.541H513.991L518.029 371.021ZM496.917 368.86V364.857L500.955 362.413H506.694V365.707H501.381V368.541H506.694V371.304H500.955L496.917 368.86ZM496.917 372.969H501.381V374.173H506.694V377.893H500.955L496.917 375.448V372.969ZM518.029 367.231H513.601V365.707H508.288V362.413H513.991L518.029 364.857V367.231ZM523.689 362.307H528.153V377.928H523.689V362.307ZM528.082 357.56V360.855H523.689V357.56H528.082ZM538.39 379.487H533.82V382.356L537.965 384.8H543.561V381.081H538.39V379.487ZM533.82 373.429V364.751L537.965 362.307H543.561V365.707H538.319V373.04H543.561V375.909H537.965L533.82 373.429ZM555.109 382.356V362.307H545.332V365.707H550.61V373.04H545.332V375.909H550.61V381.081H545.332V384.8H550.965L555.109 382.356ZM561.839 377.857V362.307H566.338V363.83L571.58 362.307V365.637H566.338V377.857H561.839ZM583.057 377.857V364.751L578.877 362.307H573.281V365.637H578.629V377.857H583.057Z" fill="#8BC53F"/>
</g>
</g>
</g>
</g>
<g clip-path="url(#clip11_1_2)">
<path d="M660.938 210.8H605.751V412.704H660.938V210.8Z" fill="#5D9943"/>
<path d="M728.239 210.8H673.052V412.704H728.239V210.8Z" fill="#5D9943" fill-opacity="0.75"/>
<path d="M795.54 210.8H740.353V412.704H795.54V210.8Z" fill="#5D9943" fill-opacity="0.5"/>
</g>
</g>
</g>
<path d="M449.662 195.667V37.5894H997.988V585.915H449.662V427.837H458.329V577.249H989.322V46.2559H458.329V195.667H449.662Z" fill="white"/>
</g>
</g>
</g>
<defs>
<clipPath id="clip0_1_2">
<rect width="1000" height="623" fill="white"/>
</clipPath>
<clipPath id="clip1_1_2">
<rect width="1000" height="623" fill="white" transform="translate(-0.606079 0.252228)"/>
</clipPath>
<clipPath id="clip2_1_2">
<rect width="997.607" height="623.504" fill="white" transform="translate(0.590393)"/>
</clipPath>
<clipPath id="clip3_1_2">
<rect width="616.521" height="201.904" fill="white" transform="translate(191.133 210.8)"/>
</clipPath>
<clipPath id="clip4_1_2">
<rect width="616.521" height="201.904" fill="white" transform="translate(191.133 210.8)"/>
</clipPath>
<clipPath id="clip5_1_2">
<rect width="391.931" height="146.095" fill="white" transform="translate(191.133 238.704)"/>
</clipPath>
<clipPath id="clip6_1_2">
<rect width="391.931" height="146.095" fill="white" transform="translate(191.133 238.704)"/>
</clipPath>
<clipPath id="clip7_1_2">
<rect width="391.931" height="96.0984" fill="white" transform="translate(191.133 238.704)"/>
</clipPath>
<clipPath id="clip8_1_2">
<rect width="391.931" height="96.0984" fill="white" transform="translate(191.133 238.704)"/>
</clipPath>
<clipPath id="clip9_1_2">
<rect width="230.103" height="27.3105" fill="white" transform="translate(352.962 357.489)"/>
</clipPath>
<clipPath id="clip10_1_2">
<rect width="230.103" height="27.3105" fill="white" transform="translate(352.962 357.489)"/>
</clipPath>
<clipPath id="clip11_1_2">
<rect width="201.904" height="201.904" fill="white" transform="translate(605.751 210.8)"/>
</clipPath>
</defs>
</svg>
